<?xml version="1.0" standalone="no"?>
<!DOCTYPE svg PUBLIC "-//W3C//DTD SVG 1.1//EN" "http://www.w3.org/Graphics/SVG/1.1/DTD/svg11.dtd" >
<svg xmlns="http://www.w3.org/2000/svg">
<metadata></metadata>
<defs>
<font id="fs_elliotlight" horiz-adv-x="1179" >
<font-face units-per-em="2048" ascent="1536" descent="-512" />
<missing-glyph horiz-adv-x="491" />
<glyph unicode="&#xfb01;" horiz-adv-x="1134" d="M59 909v80h217v166q0 136 94.5 223.5t237.5 87.5q131 0 285 -51l-21 -78q-149 47 -254 47t-174 -65t-69 -166v-164h581v-989h-98v909h-483v-909h-99v909h-217z" />
<glyph unicode="&#xfb02;" horiz-adv-x="1232" d="M59 909v80h217v166q0 139 93.5 225t240.5 86q114 0 346 -36v-1237q0 -63 36 -98.5t98 -35.5q44 0 102 15l14 -80q-78 -19 -133 -19q-98 0 -156.5 57t-58.5 152v1176q-141 24 -242 24q-108 0 -174.5 -63.5t-66.5 -167.5v-164h305v-80h-305v-909h-99v909h-217z" />
<glyph unicode="&#xfb03;" horiz-adv-x="1748" d="M59 909v80h217v209q0 118 76.5 193t196.5 75q94 0 182 -26l-16 -80q-73 22 -148 22q-85 0 -138.5 -52.5t-53.5 -137.5v-203h516v166q0 136 93.5 223.5t236.5 87.5q132 0 286 -51l-22 -78q-146 47 -252 47t-175 -65t-69 -166v-164h580v-989h-99v909h-481v-909h-98v909 h-516v-909h-99v909h-217z" />
<glyph unicode="&#xfb04;" horiz-adv-x="1847" d="M59 909v80h217v209q0 118 76.5 193t196.5 75q94 0 182 -26l-16 -80q-73 22 -148 22q-85 0 -138.5 -52.5t-53.5 -137.5v-203h516v166q0 139 93 225t241 86q115 0 344 -36v-1237q0 -63 36.5 -98.5t98.5 -35.5q44 0 102 15l15 -80q-81 -19 -135 -19q-97 0 -156.5 57 t-59.5 152v1176q-137 24 -239 24q-108 0 -175 -63.5t-67 -167.5v-164h303v-80h-303v-909h-98v909h-516v-909h-99v909h-217z" />
<glyph horiz-adv-x="0" />
<glyph horiz-adv-x="0" />
<glyph horiz-adv-x="682" />
<glyph unicode="&#xd;" horiz-adv-x="491" />
<glyph unicode=" "  horiz-adv-x="491" />
<glyph unicode="&#x09;" horiz-adv-x="491" />
<glyph unicode="&#xa0;" horiz-adv-x="491" />
<glyph unicode="!" horiz-adv-x="516" d="M180 59q0 34 22 55t56 21t55 -21t21 -55t-21 -55.5t-55 -21.5q-35 0 -56.5 21.5t-21.5 55.5zM207 1376h102l-10 -964h-82z" />
<glyph unicode="&#x22;" horiz-adv-x="774" d="M160 1376h96l-8 -422h-78zM516 1376h96l-8 -422h-78z" />
<glyph unicode="#" horiz-adv-x="1323" d="M33 397v80h295l82 422h-281v80h295l78 405l80 -10l-76 -395h422l78 405l77 -10l-73 -395h280v-80h-295l-82 -422h281v-80h-295l-78 -405l-80 10l74 395h-420l-78 -405l-79 10l75 395h-280zM410 477h421l80 422h-419z" />
<glyph unicode="$" d="M184 164l27 80q216 -88 373 -88q142 0 227.5 63t85.5 170q0 72 -39 122t-101 78t-137 50t-150 47.5t-137 60t-101 97.5t-39 151q0 129 96.5 211.5t257.5 91.5v340h86v-338q141 -9 321 -81l-26 -80q-193 80 -332 80q-137 0 -221 -62t-84 -162q0 -70 39 -119t101 -76 t137 -49t150 -47.5t137 -60.5t101 -99.5t39 -154.5q0 -134 -99 -219t-263 -92v-340h-86v338q-160 6 -363 88z" />
<glyph unicode="%" horiz-adv-x="1769" d="M102 1032q0 161 92 265t234 104q143 0 235.5 -104t92.5 -265q0 -162 -92.5 -265t-235.5 -103t-234.5 103t-91.5 265zM182 1032q0 -135 68.5 -218t177.5 -83q110 0 179 83t69 218q0 134 -69 217.5t-179 83.5q-109 0 -177.5 -84t-68.5 -217zM340 23l1032 1376l58 -45 l-1033 -1377zM1014 344q0 162 91.5 265.5t235.5 103.5q142 0 234 -104t92 -265q0 -162 -91.5 -265.5t-234.5 -103.5q-145 0 -236 103t-91 266zM1094 344q0 -135 68.5 -218t178.5 -83q109 0 177.5 83t68.5 218q0 133 -68.5 217t-177.5 84q-110 0 -178.5 -83.5t-68.5 -217.5z " />
<glyph unicode="&#x26;" horiz-adv-x="1296" d="M100 367q0 237 336 417q-96 98 -142 170.5t-46 157.5q0 128 90 208.5t233 80.5q134 0 221 -76.5t87 -194.5q0 -102 -70.5 -185t-241.5 -179l406 -436q90 149 90 332h86q0 -219 -115 -398l244 -264h-115l-190 205q-90 -111 -201 -170.5t-229 -59.5q-194 0 -318.5 110 t-124.5 282zM193 373q0 -139 101 -228.5t255 -89.5q103 0 199 54.5t170 154.5l-433 467q-292 -165 -292 -358zM338 1110q0 -69 44 -134t134 -153q148 81 210 150t62 151q0 86 -61 141.5t-156 55.5q-104 0 -168.5 -58.5t-64.5 -152.5z" />
<glyph unicode="'" horiz-adv-x="417" d="M160 1376h96l-8 -422h-78z" />
<glyph unicode="(" horiz-adv-x="673" d="M178 590q0 250 88 477t256 410l70 -52q-158 -167 -240 -381.5t-82 -453.5t82 -454t240 -382l-70 -51q-168 182 -256 409t-88 478z" />
<glyph unicode=")" horiz-adv-x="673" d="M80 -246q158 167 239.5 382t81.5 454t-81.5 453.5t-239.5 381.5l72 52q167 -181 254.5 -408t87.5 -479q0 -251 -87.5 -477.5t-254.5 -409.5z" />
<glyph unicode="*" horiz-adv-x="995" d="M100 1061l25 72l336 -111v354h74v-354l335 111l25 -72l-340 -111l209 -286l-59 -43l-207 288l-209 -288l-60 43l209 286z" />
<glyph unicode="+" d="M119 547v86h428v428h86v-428h428v-86h-428v-428h-86v428h-428z" />
<glyph unicode="," horiz-adv-x="483" d="M98 -281q152 116 152 269q-37 -5 -63.5 17.5t-26.5 57.5q0 36 23 59t59 23q42 0 67 -34.5t25 -92.5q0 -102 -52.5 -192.5t-148.5 -153.5z" />
<glyph unicode="-" horiz-adv-x="655" d="M59 467v80h537v-80h-537z" />
<glyph unicode="." horiz-adv-x="483" d="M160 63q0 35 23.5 58.5t58.5 23.5t58.5 -23.5t23.5 -58.5t-23.5 -58t-58.5 -23t-58.5 23t-23.5 58z" />
<glyph unicode="/" horiz-adv-x="786" d="M41 -252l623 1710l81 -26l-622 -1711z" />
<glyph unicode="0" d="M100 688q0 326 133 519.5t357 193.5t356.5 -193.5t132.5 -519.5t-132.5 -519.5t-356.5 -193.5t-357 193.5t-133 519.5zM193 688q0 -286 108.5 -457.5t288.5 -171.5t288.5 171.5t108.5 457.5q0 287 -108.5 458t-288.5 171t-288.5 -171t-108.5 -458z" />
<glyph unicode="1" d="M233 1124l435 252h82v-1376h-97v1274l-383 -221z" />
<glyph unicode="2" d="M123 0v66l569 569q176 173 176 362q0 141 -90 229.5t-235 88.5q-160 0 -359 -123l-41 76q217 133 414 133q180 0 294 -110t114 -283q0 -221 -193 -414l-512 -510h721v-84h-858z" />
<glyph unicode="3" d="M127 76l33 78q207 -95 387 -95q149 0 243.5 83.5t94.5 215.5q0 136 -111 222t-289 86h-73v77h73q162 0 265.5 81.5t103.5 209.5q0 126 -85 204.5t-220 78.5q-171 0 -356 -86l-33 78q197 92 399 92q173 0 283 -100.5t110 -258.5q0 -122 -74.5 -211t-199.5 -122 q140 -37 223.5 -134t83.5 -225q0 -166 -119 -270.5t-307 -104.5q-216 0 -432 101z" />
<glyph unicode="4" d="M74 342v72l686 962h92v-954h227v-80h-227v-342h-92v342h-686zM174 422h586v821z" />
<glyph unicode="5" d="M145 92l41 76q185 -109 359 -109q168 0 269 92.5t101 243.5q0 156 -100.5 247t-277.5 91q-137 0 -306 -39v682h732v-84h-644v-510q126 27 240 27q210 0 331.5 -113t121.5 -303q0 -185 -127.5 -301.5t-333.5 -116.5q-205 0 -406 117z" />
<glyph unicode="6" d="M143 598q0 385 141 594t404 209q166 0 316 -78l-35 -76q-147 72 -279 72q-222 0 -338.5 -181.5t-113.5 -527.5q38 114 148 185t249 71q193 0 312.5 -121.5t119.5 -316.5q0 -193 -127.5 -323t-316.5 -130q-223 0 -351.5 161.5t-128.5 461.5zM254 461q0 -178 103 -291 t264 -113q150 0 252 106.5t102 262.5q0 161 -97 259.5t-257 98.5q-154 0 -260.5 -93.5t-106.5 -229.5z" />
<glyph unicode="7" d="M150 1292v84h835v-65l-567 -1311h-103l559 1292h-724z" />
<glyph unicode="8" d="M127 344q0 136 91.5 232.5t254.5 128.5q-139 30 -226 122.5t-87 221.5q0 153 121.5 252.5t308.5 99.5t308.5 -99.5t121.5 -252.5q0 -129 -87 -221.5t-226 -122.5q163 -32 254.5 -128.5t91.5 -232.5q0 -164 -128.5 -266.5t-334.5 -102.5t-334.5 102.5t-128.5 266.5z M225 350q0 -132 101.5 -213.5t263.5 -81.5t263 81.5t101 213.5q0 126 -97 208.5t-267 107.5q-170 -25 -267.5 -107.5t-97.5 -208.5zM254 1042q0 -121 93 -198.5t243 -100.5q150 23 243 100.5t93 198.5q0 120 -95.5 199.5t-240.5 79.5t-240.5 -79.5t-95.5 -199.5z" />
<glyph unicode="9" d="M113 948q0 193 127.5 323t316.5 130q223 0 351 -161.5t128 -461.5q0 -385 -140.5 -594t-403.5 -209q-166 0 -316 78l35 76q147 -72 278 -72q222 0 339 181.5t114 527.5q-38 -114 -148 -185t-249 -71q-193 0 -312.5 121.5t-119.5 316.5zM205 950q0 -161 97 -259.5 t257 -98.5q154 0 260.5 93.5t106.5 229.5q0 178 -103 291t-264 113q-150 0 -252 -106.5t-102 -262.5z" />
<glyph unicode=":" horiz-adv-x="516" d="M176 63q0 35 23.5 58.5t58.5 23.5t58.5 -23.5t23.5 -58.5t-23.5 -58t-58.5 -23t-58.5 23t-23.5 58zM176 924q0 35 23.5 58.5t58.5 23.5t58.5 -23.5t23.5 -58.5t-23.5 -58.5t-58.5 -23.5t-58.5 23.5t-23.5 58.5z" />
<glyph unicode=";" horiz-adv-x="516" d="M115 -281q151 115 151 269q-37 -5 -63.5 17.5t-26.5 57.5q0 36 23 59t59 23q42 0 67 -34.5t25 -92.5q0 -103 -52.5 -193t-147.5 -153zM176 924q0 35 23.5 58.5t58.5 23.5t58.5 -23.5t23.5 -58.5t-23.5 -58.5t-58.5 -23.5t-58.5 23.5t-23.5 58.5z" />
<glyph unicode="&#x3c;" d="M119 547v86l915 426l35 -82l-833 -387l833 -387l-35 -82z" />
<glyph unicode="=" d="M119 338v86h942v-86h-942zM119 756v86h942v-86h-942z" />
<glyph unicode="&#x3e;" d="M111 203l833 387l-833 387l34 82l916 -426v-86l-916 -426z" />
<glyph unicode="?" horiz-adv-x="929" d="M74 1276q175 125 370 125q167 0 273 -101t106 -258q0 -60 -19 -114.5t-49.5 -97t-67.5 -82.5t-74 -77t-68 -74t-51 -80.5t-21 -88.5v-16h-82v22q0 70 34.5 134.5t83.5 115.5t98 101t83.5 114t34.5 133q0 124 -81.5 203.5t-209.5 79.5q-153 0 -319 -113zM354 61 q0 33 22 53.5t56 20.5t55 -20t21 -54t-21.5 -56.5t-54.5 -22.5q-34 0 -56 22.5t-22 56.5z" />
<glyph unicode="@" horiz-adv-x="1978" d="M117 494q0 264 114.5 472.5t319 324.5t463.5 116q244 0 437.5 -103t302 -288.5t108.5 -419.5q0 -245 -102.5 -397t-268.5 -152q-87 0 -145.5 51t-67.5 133q-46 -88 -126.5 -136t-186.5 -48q-167 0 -276 126.5t-109 320.5q0 195 108.5 320.5t276.5 125.5q102 0 179 -46 t120 -130l10 156h82v-631q0 -74 38 -119t105 -45q125 0 201 128t76 337q0 214 -98 382.5t-271.5 261.5t-392.5 93q-176 0 -327 -62t-257 -171t-166.5 -264t-60.5 -336q0 -241 103 -431t288 -296.5t420 -106.5q236 0 510 152l41 -70q-303 -160 -551 -160q-194 0 -361 67.5 t-284.5 187t-184.5 289.5t-67 368zM676 494q0 -160 86.5 -262.5t220.5 -102.5q124 0 200.5 83t76.5 210v145q0 128 -76.5 210.5t-200.5 82.5q-134 0 -220.5 -102.5t-86.5 -263.5z" />
<glyph unicode="A" horiz-adv-x="1357" d="M61 0l570 1376h96l569 -1376h-104l-168 410h-690l-168 -410h-105zM365 489h628l-313 766z" />
<glyph unicode="B" horiz-adv-x="1323" d="M225 0v1376h529q169 0 278 -98.5t109 -251.5q0 -107 -60 -192t-163 -123q127 -32 199.5 -124.5t72.5 -219.5q0 -164 -113.5 -265.5t-290.5 -101.5h-561zM324 80h450q140 0 228 82.5t88 212.5q0 129 -88.5 211t-227.5 82h-450v-588zM324 741h419q131 0 215 78t84 199 q0 123 -84 200.5t-215 77.5h-419v-555z" />
<glyph unicode="C" horiz-adv-x="1316" d="M117 688q0 156 48.5 289t134 226t208 145.5t266.5 52.5q234 0 447 -148l-45 -71q-187 133 -392 133q-252 0 -408.5 -173.5t-156.5 -453.5t156.5 -453.5t408.5 -173.5q203 0 392 134l45 -72q-213 -148 -447 -148q-291 0 -474 199t-183 514z" />
<glyph unicode="D" horiz-adv-x="1456" d="M225 0v1376h422q309 0 500.5 -190.5t191.5 -497.5q0 -305 -192 -496.5t-500 -191.5h-422zM326 84h311q265 0 432.5 168.5t167.5 435.5t-167.5 435.5t-432.5 168.5h-311v-1208z" />
<glyph unicode="E" horiz-adv-x="1218" d="M225 0v1376h842v-82h-741v-549h675v-81h-675v-582h774v-82h-875z" />
<glyph unicode="F" horiz-adv-x="1185" d="M225 0v1376h842v-84h-741v-596h675v-84h-675v-612h-101z" />
<glyph unicode="G" horiz-adv-x="1423" d="M117 688q0 155 49.5 287.5t137.5 226t213.5 146.5t273.5 53q224 0 462 -133l-41 -74q-217 123 -411 123q-259 0 -422.5 -175.5t-163.5 -453.5q0 -182 75.5 -325.5t212 -223.5t310.5 -80q194 0 365 80v465h-371v80h465v-600q-237 -109 -465 -109q-201 0 -358.5 90.5 t-244.5 253t-87 369.5z" />
<glyph unicode="H" horiz-adv-x="1554" d="M225 0v1376h101v-631h903v631h100v-1376h-100v664h-903v-664h-101z" />
<glyph unicode="I" horiz-adv-x="550" d="M225 0v1376h101v-1376h-101z" />
<glyph unicode="J" horiz-adv-x="897" d="M57 10l17 82q118 -31 217 -31q123 0 201.5 78t78.5 201v1036h101v-1042q0 -158 -101.5 -258.5t-261.5 -100.5q-118 0 -252 35z" />
<glyph unicode="K" horiz-adv-x="1335" d="M225 0v1376h99v-774l772 774h123l-641 -643l671 -733h-125l-616 670l-184 -183v-487h-99z" />
<glyph unicode="L" horiz-adv-x="1087" d="M225 0v1376h101v-1292h702v-84h-803z" />
<glyph unicode="M" horiz-adv-x="1734" d="M225 0v1376h101l542 -733l541 733h100v-1376h-94v1235l-516 -703h-63l-517 703v-1235h-94z" />
<glyph unicode="N" horiz-adv-x="1554" d="M225 0v1376h101l909 -1235v1235h94v-1376h-100l-910 1235v-1235h-94z" />
<glyph unicode="O" horiz-adv-x="1554" d="M117 688q0 207 83.5 369.5t234.5 253t343 90.5q191 0 341.5 -90.5t234.5 -253t84 -369.5t-84 -369.5t-234.5 -253t-341.5 -90.5q-192 0 -343 90.5t-234.5 253t-83.5 369.5zM219 688q0 -181 71 -324.5t198.5 -224t289.5 -80.5q244 0 400.5 177t156.5 452t-156.5 452 t-400.5 177q-162 0 -289.5 -80.5t-198.5 -224t-71 -324.5z" />
<glyph unicode="P" horiz-adv-x="1257" d="M225 0v1376h488q195 0 319.5 -116t124.5 -299t-124.5 -299.5t-319.5 -116.5h-389v-545h-99zM324 627h378q156 0 255.5 93.5t99.5 240.5q0 146 -99.5 238.5t-255.5 92.5h-378v-665z" />
<glyph unicode="Q" horiz-adv-x="1554" d="M117 688q0 207 83.5 369.5t234.5 253t343 90.5q191 0 341.5 -90.5t234.5 -253t84 -369.5q0 -213 -88 -377t-244 -250l360 -264l-53 -65l-393 288q-115 -45 -242 -45q-192 0 -343 90.5t-234.5 253t-83.5 369.5zM219 688q0 -181 71 -324.5t198.5 -224t289.5 -80.5 q244 0 400.5 177t156.5 452t-156.5 452t-400.5 177q-162 0 -289.5 -80.5t-198.5 -224t-71 -324.5z" />
<glyph unicode="R" horiz-adv-x="1323" d="M225 0v1376h492q187 0 306.5 -112t119.5 -287q0 -160 -100.5 -267t-264.5 -122l418 -588h-115l-405 578h-352v-578h-99zM324 659h381q150 0 244.5 88t94.5 230q0 139 -95 227t-244 88h-381v-633z" />
<glyph unicode="S" horiz-adv-x="1175" d="M117 84l26 80q272 -105 439 -105q169 0 272.5 76.5t103.5 200.5q0 68 -28.5 119.5t-76.5 84.5t-110.5 58t-132 45t-138.5 41t-131.5 51t-110.5 69.5t-76.5 101.5t-28.5 143q0 157 128.5 254.5t334.5 97.5q194 0 420 -92l-27 -80q-215 88 -387 88q-165 0 -267 -74.5 t-102 -193.5q0 -84 46 -143t119.5 -92t162 -58.5t177 -55.5t162 -70.5t119.5 -115t46 -178.5q0 -161 -129.5 -261t-339.5 -100q-211 0 -471 109z" />
<glyph unicode="T" horiz-adv-x="1218" d="M59 1292v84h1100v-84h-500v-1292h-100v1292h-500z" />
<glyph unicode="U" horiz-adv-x="1554" d="M209 516v860h100v-856q0 -202 133 -331.5t336 -129.5q202 0 334.5 129.5t132.5 331.5v856h101v-860q0 -156 -73.5 -280t-203.5 -192.5t-291 -68.5q-247 0 -408 152t-161 389z" />
<glyph unicode="V" horiz-adv-x="1357" d="M61 1376h107l512 -1247l510 1247h106l-569 -1376h-96z" />
<glyph unicode="W" horiz-adv-x="2045" d="M86 1376h102l394 -1247l393 1247h98l391 -1247l394 1247h102l-442 -1376h-103l-391 1247l-393 -1247h-103z" />
<glyph unicode="X" horiz-adv-x="1374" d="M88 0l535 705l-510 671h114l461 -604l459 604h115l-510 -671l534 -705h-117l-481 637l-483 -637h-117z" />
<glyph unicode="Y" horiz-adv-x="1204" d="M45 1376h113l444 -680l442 680h115l-508 -772v-604h-100v604z" />
<glyph unicode="Z" horiz-adv-x="1273" d="M117 0v61l880 1231h-856v84h989v-61l-878 -1231h903v-84h-1038z" />
<glyph unicode="[" horiz-adv-x="673" d="M238 -268v1716h348v-84h-256v-1548h256v-84h-348z" />
<glyph unicode="\" horiz-adv-x="786" d="M41 1432l82 26l622 -1710l-81 -27z" />
<glyph unicode="]" horiz-adv-x="673" d="M86 -184h256v1548h-256v84h348v-1716h-348v84z" />
<glyph unicode="^" d="M121 455l426 921h86l426 -921l-82 -33l-387 838l-387 -838z" />
<glyph unicode="_" horiz-adv-x="983" d="M0 -221h983v-82h-983v82z" />
<glyph unicode="`" horiz-adv-x="491" d="M-18 1368l49 68l325 -226l-39 -57z" />
<glyph unicode="a" horiz-adv-x="1083" d="M102 264q0 153 119 238.5t330 85.5q118 0 240 -29v131q0 109 -74 176.5t-193 67.5q-159 0 -331 -72l-27 74q187 78 366 78q157 0 256 -90.5t99 -233.5v-532q0 -47 27.5 -75t74.5 -28q26 0 58 8l10 -77q-49 -11 -88 -11q-74 0 -121 46t-47 122v37q-49 -97 -145 -151 t-216 -54q-145 0 -241.5 82.5t-96.5 206.5zM201 268q0 -92 74.5 -154.5t183.5 -62.5q149 0 240.5 94.5t91.5 247.5v99q-123 30 -232 30q-169 0 -263.5 -67t-94.5 -187z" />
<glyph unicode="b" horiz-adv-x="1171" d="M178 0v1442h98v-637q53 100 143.5 154.5t207.5 54.5q192 0 316 -146t124 -374q0 -227 -124 -373t-316 -146q-119 0 -211.5 55.5t-145.5 157.5l-12 -188h-80zM274 406q0 -153 93 -251t239 -98q158 0 260.5 123t102.5 314q0 192 -102.5 315t-260.5 123q-146 0 -239 -98 t-93 -250v-178z" />
<glyph unicode="c" horiz-adv-x="995" d="M102 494q0 229 134.5 374.5t345.5 145.5q175 0 331 -111l-43 -69q-134 96 -278 96q-171 0 -280 -121.5t-109 -314.5q0 -192 109 -313.5t280 -121.5q143 0 278 97l43 -72q-157 -109 -331 -109q-211 0 -345.5 146t-134.5 373z" />
<glyph unicode="d" horiz-adv-x="1171" d="M102 494q0 228 124.5 374t318.5 146q117 0 207 -54.5t141 -154.5v637h98v-1442h-80l-12 188q-53 -102 -144.5 -157.5t-209.5 -55.5q-194 0 -318.5 146t-124.5 373zM203 494q0 -191 101 -314t259 -123q147 0 239.5 98t92.5 251v178q0 153 -92.5 250.5t-239.5 97.5 q-158 0 -259 -123t-101 -315z" />
<glyph unicode="e" horiz-adv-x="1083" d="M102 494q0 229 129.5 374.5t333.5 145.5q190 0 310 -139.5t120 -360.5v-41h-794q6 -186 119 -303t288 -117q141 0 305 86l33 -71q-179 -93 -348 -93q-217 0 -356.5 146t-139.5 373zM201 541h700q-3 175 -96 284t-240 109q-154 0 -253.5 -108t-110.5 -285z" />
<glyph unicode="f" horiz-adv-x="739" d="M59 909v80h217v209q0 118 76.5 193t196.5 75q94 0 182 -26l-16 -80q-73 22 -148 22q-85 0 -138.5 -52.5t-53.5 -137.5v-203h305v-80h-305v-909h-99v909h-217z" />
<glyph unicode="g" horiz-adv-x="1171" d="M102 494q0 228 124.5 374t318.5 146q118 0 209.5 -56t144.5 -159l12 190h80v-1030q0 -180 -129 -295t-330 -115q-170 0 -366 84l31 78q186 -80 329 -80q161 0 264 91t103 233v229q-51 -100 -141 -154.5t-207 -54.5q-194 0 -318.5 146t-124.5 373zM203 494 q0 -191 101 -314t259 -123q147 0 239.5 98t92.5 251v178q0 153 -92.5 250.5t-239.5 97.5q-158 0 -259 -123t-101 -315z" />
<glyph unicode="h" horiz-adv-x="1171" d="M178 0v1442h98v-654q50 106 146 166t217 60q161 0 265 -101.5t104 -259.5v-653h-99v641q0 127 -82.5 208t-210.5 81q-147 0 -243.5 -101.5t-96.5 -261.5v-567h-98z" />
<glyph unicode="i" horiz-adv-x="454" d="M152 1305q0 34 20.5 55.5t54.5 21.5t56 -21.5t22 -55.5t-22 -55t-56 -21t-54.5 21t-20.5 55zM178 0v989h98v-989h-98z" />
<glyph unicode="j" horiz-adv-x="471" d="M-162 -424l17 80q76 -23 147 -23q86 0 139.5 53t53.5 138v1165h98v-1171q0 -118 -76.5 -193.5t-196.5 -75.5q-88 0 -182 27zM168 1305q0 34 21 55.5t55 21.5t56 -21.5t22 -55.5t-22 -55t-56 -21t-55 21t-21 55z" />
<glyph unicode="k" horiz-adv-x="1011" d="M178 0v1442h96v-987l533 534h119l-461 -463l477 -526h-119l-424 467l-125 -125v-342h-96z" />
<glyph unicode="l" horiz-adv-x="552" d="M178 184v1258h98v-1249q0 -62 37 -98t99 -36q44 0 100 15l14 -80q-78 -19 -133 -19q-99 0 -157 56.5t-58 152.5z" />
<glyph unicode="m" horiz-adv-x="1837" d="M178 0v989h80l12 -198q47 105 140.5 164t212.5 59q121 0 211 -65.5t122 -174.5q50 113 146 176.5t219 63.5q155 0 253.5 -97t98.5 -247v-670h-96v657q0 119 -79 196t-200 77q-141 0 -232 -97t-91 -249v-584h-98v657q0 119 -78 196t-199 77q-141 0 -232.5 -97t-91.5 -249 v-584h-98z" />
<glyph unicode="n" horiz-adv-x="1171" d="M178 0v989h80l12 -207q49 109 147.5 170.5t221.5 61.5q161 0 265 -101.5t104 -259.5v-653h-99v641q0 127 -82.5 208t-210.5 81q-147 0 -243.5 -101.5t-96.5 -261.5v-567h-98z" />
<glyph unicode="o" horiz-adv-x="1171" d="M102 494q0 229 136 374.5t348 145.5t346.5 -145.5t134.5 -374.5q0 -228 -134.5 -373.5t-346.5 -145.5t-348 146t-136 373zM203 494q0 -192 107 -314.5t276 -122.5q167 0 275 122.5t108 314.5q0 193 -107.5 315.5t-275.5 122.5q-169 0 -276 -122.5t-107 -315.5z" />
<glyph unicode="p" horiz-adv-x="1171" d="M178 -426v1415h80l12 -190q53 103 145 159t212 56q192 0 316 -146t124 -374q0 -227 -124 -373t-316 -146q-117 0 -207.5 54.5t-143.5 154.5v-610h-98zM274 406q0 -153 93 -251t239 -98q158 0 260.5 123t102.5 314q0 192 -102.5 315t-260.5 123q-146 0 -239 -98t-93 -250 v-178z" />
<glyph unicode="q" horiz-adv-x="1171" d="M102 494q0 228 124.5 374t318.5 146q118 0 209.5 -56t144.5 -159l12 190h80v-1415h-98v610q-51 -100 -141 -154.5t-207 -54.5q-194 0 -318.5 146t-124.5 373zM203 494q0 -191 101 -314t259 -123q147 0 239.5 98t92.5 251v178q0 153 -92.5 250.5t-239.5 97.5 q-158 0 -259 -123t-101 -315z" />
<glyph unicode="r" horiz-adv-x="761" d="M178 0v989h80l12 -209q35 105 120.5 165.5t199.5 60.5q59 0 127 -19l-15 -82q-66 17 -118 17q-136 0 -222 -103.5t-86 -267.5v-551h-98z" />
<glyph unicode="s" horiz-adv-x="903" d="M102 51l25 76q174 -74 317 -74q117 0 187.5 53t70.5 140q0 47 -20 82.5t-54.5 58t-79 40t-93.5 31.5t-97.5 29t-93 36.5t-79 50.5t-54.5 74t-20 104q0 116 94.5 189t245.5 73q147 0 315 -68l-25 -76q-149 64 -284 64q-111 0 -180.5 -50.5t-69.5 -131.5q0 -58 32.5 -98 t85 -62.5t115.5 -40.5t126 -39.5t115.5 -51t85 -84t32.5 -130.5q0 -120 -96.5 -195.5t-251.5 -75.5q-163 0 -349 76z" />
<glyph unicode="t" horiz-adv-x="804" d="M59 909v80h217v295h99v-295h338v-80h-338v-659q0 -85 53.5 -138t138.5 -53q72 0 148 23l16 -80q-91 -27 -182 -27q-120 0 -196.5 75.5t-76.5 193.5v665h-217z" />
<glyph unicode="u" horiz-adv-x="1171" d="M162 336v653h98v-641q0 -127 83 -208t212 -81q147 0 242.5 101.5t95.5 261.5v567h98v-989h-80l-12 205q-47 -108 -145 -169t-222 -61q-161 0 -265.5 101.5t-104.5 259.5z" />
<glyph unicode="v" horiz-adv-x="1040" d="M63 989h103l354 -872l352 872h103l-410 -989h-92z" />
<glyph unicode="w" horiz-adv-x="1564" d="M80 989h100l277 -868l276 868h96l277 -868l278 868h99l-326 -989h-98l-277 868l-276 -868h-100z" />
<glyph unicode="x" horiz-adv-x="1040" d="M74 0l383 506l-367 483h113l317 -418l316 418h112l-366 -483l383 -506h-113l-332 440l-332 -440h-114z" />
<glyph unicode="y" horiz-adv-x="1040" d="M63 989h103l360 -872l346 872h103l-471 -1161q-59 -148 -130.5 -213.5t-178.5 -65.5q-47 0 -127 17l16 82q59 -15 104 -15q79 0 130.5 49t97.5 166l63 158z" />
<glyph unicode="z" horiz-adv-x="968" d="M102 0v59l617 850h-600v80h729v-59l-615 -850h631v-80h-762z" />
<glyph unicode="{" horiz-adv-x="673" d="M80 549v82h33q82 0 134 54.5t52 139.5q0 53 -15.5 172t-15.5 179q0 119 76.5 195.5t192.5 76.5h49v-84h-33q-83 0 -137 -56t-54 -147q0 -52 13.5 -168.5t13.5 -173.5q0 -82 -38.5 -143.5t-110.5 -85.5q72 -24 110.5 -86t38.5 -144q0 -57 -13.5 -172.5t-13.5 -169.5 q0 -91 54 -146.5t137 -55.5h33v-84h-49q-116 0 -192.5 76.5t-76.5 195.5q0 59 15.5 176.5t15.5 173.5q0 84 -52 139.5t-134 55.5h-33z" />
<glyph unicode="|" horiz-adv-x="491" d="M203 -459v1966h86v-1966h-86z" />
<glyph unicode="}" horiz-adv-x="673" d="M86 -184h33q84 0 138 55.5t54 146.5q0 52 -14 168.5t-14 173.5q0 81 39.5 143.5t111.5 86.5q-72 24 -111.5 86t-39.5 143q0 57 14 172.5t14 169.5q0 91 -54 147t-138 56h-33v84h51q115 0 192 -76.5t77 -195.5q0 -59 -15.5 -177t-15.5 -174q0 -84 51.5 -139t132.5 -55h33 v-82h-33q-80 0 -132 -55t-52 -140q0 -54 15.5 -172t15.5 -178q0 -119 -77 -195.5t-192 -76.5h-51v84z" />
<glyph unicode="~" d="M106 573q124 109 281 109q71 0 139.5 -24.5t135 -49t131.5 -24.5q127 0 229 92l51 -70q-123 -108 -280 -108q-71 0 -139.5 24.5t-134.5 49t-132 24.5q-127 0 -229 -92z" />
<glyph unicode="&#xa1;" horiz-adv-x="516" d="M180 930q0 34 22 56t56 22q35 0 55.5 -22t20.5 -56t-21 -56t-55 -22t-56 22t-22 56zM207 -387l10 965h82l10 -965h-102z" />
<glyph unicode="&#xa2;" d="M195 688q0 211 115 352.5t302 161.5v305h86v-303q163 -3 310 -106l-45 -72q-137 98 -277 98q-173 0 -282 -122t-109 -314t109 -314t282 -122q140 0 277 98l45 -71q-147 -103 -310 -109v-301h-86v305q-187 20 -302 161.5t-115 352.5z" />
<glyph unicode="&#xa3;" d="M152 0v82h217v582h-185v81h185v299q0 158 107.5 257.5t277.5 99.5q128 0 282 -60l-26 -77q-127 53 -242 53q-132 0 -214.5 -77.5t-82.5 -201.5v-293h406v-81h-406v-582h590v-82h-909z" />
<glyph unicode="&#xa4;" d="M135 293l166 168q-76 92 -76 227t76 227l-166 168l60 60l165 -168q90 78 230 78q137 0 227 -78l168 168l59 -60l-167 -168q77 -89 77 -227q0 -134 -77 -227l167 -168l-59 -60l-168 166q-92 -73 -227 -73q-136 0 -228 73l-167 -166zM305 688q0 -124 80 -203t205 -79 t204.5 79t79.5 203q0 125 -80 205t-204 80t-204.5 -80.5t-80.5 -204.5z" />
<glyph unicode="&#xa5;" d="M82 1376h111l397 -620l397 620h111l-430 -657h327v-74h-354v-227h354v-74h-354v-344h-102v344h-355v74h355v227h-355v74h328z" />
<glyph unicode="&#xa6;" horiz-adv-x="491" d="M203 -360v786h86v-786h-86zM203 623v786h86v-786h-86z" />
<glyph unicode="&#xa7;" horiz-adv-x="1067" d="M109 -262l24 80q214 -86 377 -86q146 0 231.5 62.5t85.5 170.5q0 72 -39 122t-102 78.5t-138.5 51t-151 48t-138.5 60.5t-102 97.5t-39 150.5t49 157t139 104q-155 83 -155 258q0 138 110.5 223.5t288.5 85.5q170 0 373 -84l-27 -80q-193 80 -340 80q-139 0 -223 -62 t-84 -163q0 -56 24.5 -98t65.5 -68.5t94 -47.5t112 -38t118 -35.5t112 -45t94 -61.5t65.5 -89.5t24.5 -125.5q0 -87 -46.5 -155.5t-131.5 -106.5q146 -89 146 -256q0 -145 -112 -231t-298 -86t-407 90zM215 578q0 -54 22 -96t55.5 -68t85 -48.5t98 -36t108.5 -32.5t102 -35 q80 28 127 85.5t47 131.5q0 53 -21 95t-52 68t-82 49t-93.5 36t-105 31.5t-100.5 32.5q-88 -23 -139.5 -80t-51.5 -133z" />
<glyph unicode="&#xa8;" horiz-adv-x="491" d="M-33 1305q0 32 20.5 51.5t53.5 19.5q32 0 52 -19.5t20 -51.5t-20 -52t-52 -20t-53 20t-21 52zM379 1305q0 32 20 51.5t52 19.5t52.5 -19.5t20.5 -51.5t-20.5 -52t-52.5 -20t-52 20t-20 52z" />
<glyph unicode="&#xa9;" horiz-adv-x="1703" d="M98 688q0 218 96 390t268 268t390 96t390 -96t268 -268t96 -390t-96 -390t-268 -268t-390 -96t-390 96t-268 268t-96 390zM160 688q0 -304 194 -498t498 -194t498 194t194 498t-194 498t-498 194t-498 -194t-194 -498zM463 688q0 195 115 318.5t299 123.5q144 0 280 -92 l-39 -57q-112 80 -233 80q-152 0 -246 -103.5t-94 -269.5t94 -269.5t246 -103.5q121 0 233 80l39 -57q-136 -92 -280 -92q-184 0 -299 123.5t-115 318.5z" />
<glyph unicode="&#xaa;" horiz-adv-x="774" d="M59 489v64h656v-64h-656zM86 899q0 101 80 158t219 57q59 0 158 -18v71q0 75 -48 120.5t-126 45.5q-103 0 -222 -49l-20 59q128 52 246 52q108 0 176.5 -64t68.5 -166v-334q0 -63 62 -63q13 0 41 4l6 -61q-27 -6 -63 -6q-53 0 -84.5 31.5t-32.5 86.5q-37 -57 -98 -87.5 t-136 -30.5q-97 0 -162 55t-65 139zM164 901q0 -59 46.5 -97t115.5 -38q94 0 155.5 59t61.5 150v67q-90 17 -154 17q-107 0 -166 -41t-59 -117z" />
<glyph unicode="&#xab;" horiz-adv-x="1042" d="M63 481v51l404 449l59 -49l-364 -426l364 -424l-59 -49zM492 481v51l403 449l59 -49l-364 -426l364 -424l-59 -49z" />
<glyph unicode="&#xac;" d="M119 547v86h942v-514h-86v428h-856z" />
<glyph unicode="&#xad;" horiz-adv-x="655" d="M113 467v80h536v-80h-536z" />
<glyph unicode="&#xae;" horiz-adv-x="1703" d="M98 688q0 218 96 390t268 268t390 96t390 -96t268 -268t96 -390t-96 -390t-268 -268t-390 -96t-390 96t-268 268t-96 390zM160 688q0 -304 194 -498t498 -194t498 194t194 498t-194 498t-498 194t-498 -194t-194 -498zM586 262v852h313q117 0 193.5 -70t76.5 -180 q0 -99 -61 -165.5t-160 -77.5l250 -359h-90l-236 350h-210v-350h-76zM662 676h229q90 0 145.5 51t55.5 135q0 83 -56 135t-145 52h-229v-373z" />
<glyph unicode="&#xaf;" horiz-adv-x="491" d="M-45 1268v73h582v-73h-582z" />
<glyph unicode="&#xb0;" horiz-adv-x="667" d="M104 1165q0 100 64.5 165t165.5 65q100 0 164.5 -65t64.5 -165q0 -101 -64.5 -165t-164.5 -64q-101 0 -165.5 64t-64.5 165zM168 1165q0 -73 46 -119.5t120 -46.5t120 46.5t46 119.5q0 72 -46.5 119t-119.5 47t-119.5 -47t-46.5 -119z" />
<glyph unicode="&#xb1;" d="M119 0v86h942v-86h-942zM119 686v86h428v428h86v-428h428v-86h-428v-428h-86v428h-428z" />
<glyph unicode="&#xb2;" horiz-adv-x="696" d="M53 786v52l346 348q105 102 105 211q0 85 -51.5 136.5t-137.5 51.5q-102 0 -219 -74l-35 60q137 84 265 84q114 0 185 -69.5t71 -178.5q0 -138 -119 -254l-297 -299h428v-68h-541z" />
<glyph unicode="&#xb3;" horiz-adv-x="696" d="M59 836l31 61q116 -61 227 -61q89 0 144 49t55 127q0 80 -64.5 130t-168.5 50h-52v61h52q95 0 155 47.5t60 122.5q0 74 -50 120t-131 46q-105 0 -215 -55l-28 61q126 60 254 60q110 0 178.5 -63t68.5 -162q0 -74 -42.5 -129.5t-114.5 -75.5q80 -24 129 -83t49 -136 q0 -105 -74 -170.5t-194 -65.5q-134 0 -269 66z" />
<glyph unicode="&#xb4;" horiz-adv-x="491" d="M139 1210l328 226l49 -68l-336 -215z" />
<glyph unicode="&#xb5;" horiz-adv-x="1220" d="M178 -426v1415h98v-641q0 -128 82.5 -208.5t212.5 -80.5q147 0 242.5 101.5t95.5 261.5v567h99v-829q0 -46 27 -73.5t71 -27.5q26 0 57 7l13 -80q-50 -11 -86 -11q-78 0 -126.5 46t-48.5 122v43q-48 -99 -139 -155t-207 -56q-100 0 -176 38t-117 110v-549h-98z" />
<glyph unicode="&#xb6;" horiz-adv-x="1171" d="M100 969q0 178 125 292.5t318 114.5h403v-1704h-86v1618h-223v-729h-94q-193 0 -318 114.5t-125 293.5z" />
<glyph unicode="&#xb7;" horiz-adv-x="483" d="M160 506q0 35 23.5 58.5t58.5 23.5t58.5 -23.5t23.5 -58.5t-23.5 -58.5t-58.5 -23.5t-58.5 23.5t-23.5 58.5z" />
<glyph unicode="&#xb8;" horiz-adv-x="491" d="M47 -418l23 64q82 -29 145 -29q58 0 95.5 28t37.5 74q0 44 -38.5 72.5t-98.5 28.5h-18l32 180h74l-23 -131q66 -6 110 -51t44 -107q0 -71 -58.5 -116.5t-148.5 -45.5q-91 0 -176 33z" />
<glyph unicode="&#xb9;" horiz-adv-x="544" d="M43 1481l270 157h66v-852h-78v770l-227 -131z" />
<glyph unicode="&#xba;" horiz-adv-x="823" d="M86 1051q0 152 91.5 248t234.5 96t234 -96t91 -248q0 -153 -91 -249.5t-234 -96.5t-234.5 96.5t-91.5 249.5zM92 489v64h637v-64h-637zM166 1051q0 -124 68.5 -201.5t177.5 -77.5q108 0 176.5 77.5t68.5 201.5q0 123 -68.5 200.5t-176.5 77.5q-109 0 -177.5 -77.5 t-68.5 -200.5z" />
<glyph unicode="&#xbb;" horiz-adv-x="1042" d="M86 82l367 424l-367 426l59 49l406 -449v-51l-406 -448zM514 82l367 424l-367 426l59 49l406 -449v-51l-406 -448z" />
<glyph unicode="&#xbc;" horiz-adv-x="1966" d="M164 1219l270 157h66v-852h-78v770l-227 -131zM438 23l1032 1376l58 -45l-1032 -1377zM1251 205v55l418 592h74v-584h139v-63h-139v-205h-72v205h-420zM1331 268h340v482z" />
<glyph unicode="&#xbd;" horiz-adv-x="1966" d="M164 1219l270 157h66v-852h-78v770l-227 -131zM438 23l1032 1376l58 -45l-1032 -1377zM1278 0v51l346 348q105 102 105 211q0 85 -51.5 137t-137.5 52q-102 0 -219 -74l-35 59q137 84 264 84q114 0 185 -69t71 -178q0 -139 -118 -254l-297 -299h428v-68h-541z" />
<glyph unicode="&#xbe;" horiz-adv-x="1966" d="M104 573l31 62q118 -62 227 -62q89 0 144 49.5t55 127.5q0 80 -64.5 130t-168.5 50h-52v61h52q95 0 155 47.5t60 122.5q0 74 -50 120t-131 46q-105 0 -215 -55l-28 61q126 60 254 60q110 0 179 -63.5t69 -162.5q0 -73 -43 -128.5t-115 -75.5q80 -23 129 -83t49 -137 q0 -104 -74 -169.5t-194 -65.5q-136 0 -269 65zM438 23l1032 1376l58 -45l-1032 -1377zM1251 205v55l418 592h74v-584h139v-63h-139v-205h-72v205h-420zM1331 268h340v482z" />
<glyph unicode="&#xbf;" horiz-adv-x="798" d="M90 -53q0 82 35.5 154.5t86 126t101 104t87 109.5t38.5 120l2 17h82v-23q0 -70 -34.5 -134.5t-83.5 -115.5t-98 -101t-83.5 -114t-34.5 -133q0 -125 81 -204t210 -79q154 0 320 113l41 -74q-178 -125 -373 -125q-165 0 -271 101t-106 258zM403 930q0 34 22 56t56 22 t55 -22t21 -56t-21 -56t-55 -22t-56 22t-22 56z" />
<glyph unicode="&#xc0;" horiz-adv-x="1357" d="M61 0l570 1376h96l569 -1376h-104l-168 410h-690l-168 -410h-105zM365 489h628l-313 766zM416 1755l49 68l326 -226l-39 -57z" />
<glyph unicode="&#xc1;" horiz-adv-x="1357" d="M61 0l570 1376h96l569 -1376h-104l-168 410h-690l-168 -410h-105zM365 489h628l-313 766zM573 1597l328 226l49 -68l-336 -215z" />
<glyph unicode="&#xc2;" horiz-adv-x="1357" d="M61 0l570 1376h96l569 -1376h-104l-168 410h-690l-168 -410h-105zM365 489h628l-313 766zM397 1593l248 242h70l248 -242l-48 -51l-235 219l-236 -219z" />
<glyph unicode="&#xc3;" horiz-adv-x="1357" d="M61 0l570 1376h96l569 -1376h-104l-168 410h-690l-168 -410h-105zM365 489h628l-313 766zM393 1636q15 59 57.5 96t98.5 37q46 0 134.5 -39.5t121.5 -39.5q67 0 92 79l70 -22q-15 -59 -57.5 -95t-98.5 -36q-46 0 -134.5 39t-121.5 39q-32 0 -57 -20.5t-35 -57.5z" />
<glyph unicode="&#xc4;" horiz-adv-x="1357" d="M61 0l570 1376h96l569 -1376h-104l-168 410h-690l-168 -410h-105zM365 489h628l-313 766zM420 1692q0 32 20.5 51.5t53.5 19.5q32 0 51.5 -19.5t19.5 -51.5t-19.5 -52t-51.5 -20t-53 20t-21 52zM831 1692q0 32 20 51.5t52 19.5q33 0 53.5 -19.5t20.5 -51.5t-21 -52 t-53 -20t-52 20t-20 52z" />
<glyph unicode="&#xc5;" horiz-adv-x="1357" d="M61 0l570 1376h96l569 -1376h-104l-168 410h-690l-168 -410h-105zM365 489h628l-313 766zM487 1692q0 84 54 136t139 52t138.5 -52t53.5 -136t-52 -136.5t-136 -52.5q-86 0 -141.5 53t-55.5 136zM547 1692q0 -60 38.5 -96.5t98.5 -36.5q57 0 93 36.5t36 96.5t-37 96.5 t-96 36.5q-60 0 -96.5 -36.5t-36.5 -96.5z" />
<glyph unicode="&#xc6;" horiz-adv-x="1978" d="M8 0l932 1376h887v-82h-742v-549h676v-81h-676v-582h775v-82h-873v410h-584l-278 -410h-117zM451 489h536v795z" />
<glyph unicode="&#xc7;" horiz-adv-x="1316" d="M117 688q0 156 48.5 289t134 226t208 145.5t266.5 52.5q234 0 447 -148l-45 -71q-187 133 -392 133q-252 0 -408.5 -173.5t-156.5 -453.5t156.5 -453.5t408.5 -173.5q203 0 392 134l45 -72q-194 -137 -414 -146l-21 -108q67 -6 111.5 -51t44.5 -107q0 -71 -58.5 -116.5 t-148.5 -45.5q-91 0 -176 33l21 64q82 -29 147 -29q58 0 94.5 27.5t36.5 74.5q0 44 -37.5 72.5t-97.5 28.5h-21l29 160q-276 14 -445 208.5t-169 499.5z" />
<glyph unicode="&#xc8;" horiz-adv-x="1218" d="M225 0v1376h842v-82h-741v-549h675v-81h-675v-582h774v-82h-875zM360 1755l50 68l325 -226l-39 -57z" />
<glyph unicode="&#xc9;" horiz-adv-x="1218" d="M225 0v1376h842v-82h-741v-549h675v-81h-675v-582h774v-82h-875zM518 1597l328 226l49 -68l-336 -215z" />
<glyph unicode="&#xca;" horiz-adv-x="1218" d="M225 0v1376h842v-82h-741v-549h675v-81h-675v-582h774v-82h-875zM342 1593l248 242h69l248 -242l-47 -51l-235 219l-236 -219z" />
<glyph unicode="&#xcb;" horiz-adv-x="1218" d="M225 0v1376h842v-82h-741v-549h675v-81h-675v-582h774v-82h-875zM346 1692q0 32 20.5 51.5t53.5 19.5q32 0 52 -19.5t20 -51.5t-20 -52t-52 -20t-53 20t-21 52zM758 1692q0 32 19.5 51.5t51.5 19.5q33 0 53.5 -19.5t20.5 -51.5t-21 -52t-53 -20t-51.5 20t-19.5 52z" />
<glyph unicode="&#xcc;" horiz-adv-x="550" d="M12 1755l49 68l326 -226l-39 -57zM225 0v1376h101v-1376h-101z" />
<glyph unicode="&#xcd;" horiz-adv-x="550" d="M170 1597l328 226l49 -68l-336 -215zM225 0v1376h101v-1376h-101z" />
<glyph unicode="&#xce;" horiz-adv-x="550" d="M-6 1593l248 242h69l248 -242l-47 -51l-236 219l-235 -219zM225 0v1376h101v-1376h-101z" />
<glyph unicode="&#xcf;" horiz-adv-x="550" d="M-2 1692q0 32 20.5 51.5t53.5 19.5q32 0 51.5 -19.5t19.5 -51.5t-19.5 -52t-51.5 -20t-53 20t-21 52zM225 0v1376h101v-1376h-101zM410 1692q0 32 19.5 51.5t51.5 19.5q33 0 53.5 -19.5t20.5 -51.5t-21 -52t-53 -20t-51.5 20t-19.5 52z" />
<glyph unicode="&#xd0;" horiz-adv-x="1488" d="M59 664v81h199v631h422q309 0 500.5 -190.5t191.5 -497.5q0 -305 -192 -496.5t-500 -191.5h-422v664h-199zM356 84h318q265 0 432.5 168.5t167.5 435.5t-167.5 435.5t-432.5 168.5h-318v-547h383v-81h-383v-580z" />
<glyph unicode="&#xd1;" horiz-adv-x="1554" d="M225 0v1376h101l909 -1235v1235h94v-1376h-100l-910 1235v-1235h-94zM492 1636q15 60 57 96.5t98 36.5q46 0 134.5 -39.5t121.5 -39.5q67 0 92 79l70 -22q-15 -59 -57.5 -95t-98.5 -36q-46 0 -134.5 39t-121.5 39q-32 0 -57 -20.5t-35 -57.5z" />
<glyph unicode="&#xd2;" horiz-adv-x="1554" d="M117 688q0 207 83.5 369.5t234.5 253t343 90.5q191 0 341.5 -90.5t234.5 -253t84 -369.5t-84 -369.5t-234.5 -253t-341.5 -90.5q-192 0 -343 90.5t-234.5 253t-83.5 369.5zM219 688q0 -181 71 -324.5t198.5 -224t289.5 -80.5q244 0 400.5 177t156.5 452t-156.5 452 t-400.5 177q-162 0 -289.5 -80.5t-198.5 -224t-71 -324.5zM514 1755l49 68l326 -226l-39 -57z" />
<glyph unicode="&#xd3;" horiz-adv-x="1554" d="M117 688q0 207 83.5 369.5t234.5 253t343 90.5q191 0 341.5 -90.5t234.5 -253t84 -369.5t-84 -369.5t-234.5 -253t-341.5 -90.5q-192 0 -343 90.5t-234.5 253t-83.5 369.5zM219 688q0 -181 71 -324.5t198.5 -224t289.5 -80.5q244 0 400.5 177t156.5 452t-156.5 452 t-400.5 177q-162 0 -289.5 -80.5t-198.5 -224t-71 -324.5zM672 1597l327 226l50 -68l-336 -215z" />
<glyph unicode="&#xd4;" horiz-adv-x="1554" d="M117 688q0 207 83.5 369.5t234.5 253t343 90.5q191 0 341.5 -90.5t234.5 -253t84 -369.5t-84 -369.5t-234.5 -253t-341.5 -90.5q-192 0 -343 90.5t-234.5 253t-83.5 369.5zM219 688q0 -181 71 -324.5t198.5 -224t289.5 -80.5q244 0 400.5 177t156.5 452t-156.5 452 t-400.5 177q-162 0 -289.5 -80.5t-198.5 -224t-71 -324.5zM496 1593l247 242h70l248 -242l-47 -51l-236 219l-235 -219z" />
<glyph unicode="&#xd5;" horiz-adv-x="1554" d="M117 688q0 207 83.5 369.5t234.5 253t343 90.5q191 0 341.5 -90.5t234.5 -253t84 -369.5t-84 -369.5t-234.5 -253t-341.5 -90.5q-192 0 -343 90.5t-234.5 253t-83.5 369.5zM219 688q0 -181 71 -324.5t198.5 -224t289.5 -80.5q244 0 400.5 177t156.5 452t-156.5 452 t-400.5 177q-162 0 -289.5 -80.5t-198.5 -224t-71 -324.5zM492 1636q15 60 57 96.5t98 36.5q46 0 134.5 -39.5t121.5 -39.5q67 0 92 79l70 -22q-15 -59 -57.5 -95t-98.5 -36q-46 0 -134.5 39t-121.5 39q-32 0 -57 -20.5t-35 -57.5z" />
<glyph unicode="&#xd6;" horiz-adv-x="1554" d="M117 688q0 207 83.5 369.5t234.5 253t343 90.5q191 0 341.5 -90.5t234.5 -253t84 -369.5t-84 -369.5t-234.5 -253t-341.5 -90.5q-192 0 -343 90.5t-234.5 253t-83.5 369.5zM219 688q0 -181 71 -324.5t198.5 -224t289.5 -80.5q244 0 400.5 177t156.5 452t-156.5 452 t-400.5 177q-162 0 -289.5 -80.5t-198.5 -224t-71 -324.5zM500 1692q0 32 20.5 51.5t52.5 19.5t52 -19.5t20 -51.5t-20 -52t-52 -20t-52.5 20t-20.5 52zM911 1692q0 32 20 51.5t52 19.5q33 0 53.5 -19.5t20.5 -51.5t-21 -52t-53 -20t-52 20t-20 52z" />
<glyph unicode="&#xd7;" d="M180 240l350 350l-350 350l60 59l350 -350l350 350l59 -59l-350 -350l350 -350l-59 -60l-350 350l-350 -350z" />
<glyph unicode="&#xd8;" horiz-adv-x="1554" d="M117 688q0 207 83.5 369.5t234.5 253t343 90.5q228 0 393 -131l101 135l53 -43l-100 -133q102 -96 157.5 -235t55.5 -306q0 -207 -84 -369.5t-234.5 -253t-341.5 -90.5q-230 0 -395 131l-100 -135l-54 43l99 133q-101 96 -156 235t-55 306zM213 688q0 -143 44.5 -263 t127.5 -204l733 977q-140 121 -340 121q-164 0 -293 -80.5t-200.5 -224.5t-71.5 -326zM436 176q144 -119 342 -119q247 0 405 177t158 454q0 143 -44.5 263t-127.5 204z" />
<glyph unicode="&#xd9;" horiz-adv-x="1554" d="M209 516v860h100v-856q0 -202 133 -331.5t336 -129.5q202 0 334.5 129.5t132.5 331.5v856h101v-860q0 -156 -73.5 -280t-203.5 -192.5t-291 -68.5q-247 0 -408 152t-161 389zM514 1755l49 68l326 -226l-39 -57z" />
<glyph unicode="&#xda;" horiz-adv-x="1554" d="M209 516v860h100v-856q0 -202 133 -331.5t336 -129.5q202 0 334.5 129.5t132.5 331.5v856h101v-860q0 -156 -73.5 -280t-203.5 -192.5t-291 -68.5q-247 0 -408 152t-161 389zM672 1597l327 226l50 -68l-336 -215z" />
<glyph unicode="&#xdb;" horiz-adv-x="1554" d="M209 516v860h100v-856q0 -202 133 -331.5t336 -129.5q202 0 334.5 129.5t132.5 331.5v856h101v-860q0 -156 -73.5 -280t-203.5 -192.5t-291 -68.5q-247 0 -408 152t-161 389zM496 1593l247 242h70l248 -242l-47 -51l-236 219l-235 -219z" />
<glyph unicode="&#xdc;" horiz-adv-x="1554" d="M209 516v860h100v-856q0 -202 133 -331.5t336 -129.5q202 0 334.5 129.5t132.5 331.5v856h101v-860q0 -156 -73.5 -280t-203.5 -192.5t-291 -68.5q-247 0 -408 152t-161 389zM500 1692q0 32 20.5 51.5t52.5 19.5t52 -19.5t20 -51.5t-20 -52t-52 -20t-52.5 20t-20.5 52z M911 1692q0 32 20 51.5t52 19.5q33 0 53.5 -19.5t20.5 -51.5t-21 -52t-53 -20t-52 20t-20 52z" />
<glyph unicode="&#xdd;" horiz-adv-x="1204" d="M45 1376h113l444 -680l442 680h115l-508 -772v-604h-100v604zM496 1597l327 226l49 -68l-335 -215z" />
<glyph unicode="&#xde;" horiz-adv-x="1257" d="M225 0v1376h99v-256h389q195 0 319.5 -116t124.5 -299t-124.5 -299.5t-319.5 -116.5h-389v-289h-99zM324 371h378q156 0 255.5 93.5t99.5 240.5t-99.5 240t-255.5 93h-378v-667z" />
<glyph unicode="&#xdf;" horiz-adv-x="1236" d="M178 0v1090q0 172 107.5 274t283.5 102q157 0 257 -87.5t100 -217.5q0 -57 -19 -106.5t-46 -85t-54.5 -69.5t-46.5 -75t-19 -86q0 -49 22.5 -87.5t58.5 -64t79.5 -48t87 -48t79.5 -56t58.5 -79t22.5 -110.5q0 -123 -92 -197t-240 -74q-130 0 -278 68l28 76 q134 -64 244 -64q109 0 176.5 51.5t67.5 139.5q0 50 -22.5 88.5t-59 64t-80.5 48.5t-88 48t-80.5 55t-59 77t-22.5 108q0 52 19 98.5t46 81.5l54 70t46 79.5t19 94.5q0 97 -72.5 162t-189.5 65q-132 0 -211.5 -81.5t-79.5 -219.5v-1085h-96z" />
<glyph unicode="&#xe0;" horiz-adv-x="1099" d="M102 264q0 153 119 238.5t330 85.5q118 0 240 -29v131q0 109 -74 176.5t-193 67.5q-159 0 -331 -72l-27 74q187 78 366 78q157 0 256 -90.5t99 -233.5v-532q0 -47 27.5 -75t74.5 -28q26 0 58 8l10 -77q-49 -11 -88 -11q-74 0 -121 46t-47 122v37q-49 -97 -145 -151 t-216 -54q-145 0 -241.5 82.5t-96.5 206.5zM201 268q0 -92 74.5 -154.5t183.5 -62.5q149 0 240.5 94.5t91.5 247.5v99q-123 30 -232 30q-169 0 -263.5 -67t-94.5 -187zM268 1368l49 68l326 -226l-39 -57z" />
<glyph unicode="&#xe1;" horiz-adv-x="1099" d="M102 264q0 153 119 238.5t330 85.5q118 0 240 -29v131q0 109 -74 176.5t-193 67.5q-159 0 -331 -72l-27 74q187 78 366 78q157 0 256 -90.5t99 -233.5v-532q0 -47 27.5 -75t74.5 -28q26 0 58 8l10 -77q-49 -11 -88 -11q-74 0 -121 46t-47 122v37q-49 -97 -145 -151 t-216 -54q-145 0 -241.5 82.5t-96.5 206.5zM201 268q0 -92 74.5 -154.5t183.5 -62.5q149 0 240.5 94.5t91.5 247.5v99q-123 30 -232 30q-169 0 -263.5 -67t-94.5 -187zM426 1210l328 226l49 -68l-336 -215z" />
<glyph unicode="&#xe2;" horiz-adv-x="1099" d="M102 264q0 153 119 238.5t330 85.5q118 0 240 -29v131q0 109 -74 176.5t-193 67.5q-159 0 -331 -72l-27 74q187 78 366 78q157 0 256 -90.5t99 -233.5v-532q0 -47 27.5 -75t74.5 -28q26 0 58 8l10 -77q-49 -11 -88 -11q-74 0 -121 46t-47 122v37q-49 -97 -145 -151 t-216 -54q-145 0 -241.5 82.5t-96.5 206.5zM201 268q0 -92 74.5 -154.5t183.5 -62.5q149 0 240.5 94.5t91.5 247.5v99q-123 30 -232 30q-169 0 -263.5 -67t-94.5 -187zM250 1206l248 242h69l248 -242l-47 -51l-236 219l-235 -219z" />
<glyph unicode="&#xe3;" horiz-adv-x="1099" d="M102 264q0 153 119 238.5t330 85.5q118 0 240 -29v131q0 109 -74 176.5t-193 67.5q-159 0 -331 -72l-27 74q187 78 366 78q157 0 256 -90.5t99 -233.5v-532q0 -47 27.5 -75t74.5 -28q26 0 58 8l10 -77q-49 -11 -88 -11q-74 0 -121 46t-47 122v37q-49 -97 -145 -151 t-216 -54q-145 0 -241.5 82.5t-96.5 206.5zM201 268q0 -92 74.5 -154.5t183.5 -62.5q149 0 240.5 94.5t91.5 247.5v99q-123 30 -232 30q-169 0 -263.5 -67t-94.5 -187zM246 1249q15 60 57 96.5t98 36.5q46 0 134.5 -39.5t121.5 -39.5q68 0 93 79l69 -22q-15 -59 -57 -95 t-98 -36q-46 0 -134.5 39t-121.5 39t-58 -21t-35 -57z" />
<glyph unicode="&#xe4;" horiz-adv-x="1099" d="M102 264q0 153 119 238.5t330 85.5q118 0 240 -29v131q0 109 -74 176.5t-193 67.5q-159 0 -331 -72l-27 74q187 78 366 78q157 0 256 -90.5t99 -233.5v-532q0 -47 27.5 -75t74.5 -28q26 0 58 8l10 -77q-49 -11 -88 -11q-74 0 -121 46t-47 122v37q-49 -97 -145 -151 t-216 -54q-145 0 -241.5 82.5t-96.5 206.5zM201 268q0 -92 74.5 -154.5t183.5 -62.5q149 0 240.5 94.5t91.5 247.5v99q-123 30 -232 30q-169 0 -263.5 -67t-94.5 -187zM254 1305q0 32 20.5 51.5t53.5 19.5q32 0 51.5 -19.5t19.5 -51.5t-19.5 -52t-51.5 -20t-53 20t-21 52z M666 1305q0 32 19.5 51.5t51.5 19.5q33 0 53.5 -19.5t20.5 -51.5t-21 -52t-53 -20t-51.5 20t-19.5 52z" />
<glyph unicode="&#xe5;" horiz-adv-x="1099" d="M102 264q0 153 119 238.5t330 85.5q118 0 240 -29v131q0 109 -74 176.5t-193 67.5q-159 0 -331 -72l-27 74q187 78 366 78q157 0 256 -90.5t99 -233.5v-532q0 -47 27.5 -75t74.5 -28q26 0 58 8l10 -77q-49 -11 -88 -11q-74 0 -121 46t-47 122v37q-49 -97 -145 -151 t-216 -54q-145 0 -241.5 82.5t-96.5 206.5zM201 268q0 -92 74.5 -154.5t183.5 -62.5q149 0 240.5 94.5t91.5 247.5v99q-123 30 -232 30q-169 0 -263.5 -67t-94.5 -187zM340 1305q0 84 53.5 136t138.5 52t139 -52t54 -136t-52 -136.5t-136 -52.5q-86 0 -141.5 53t-55.5 136z M399 1305q0 -60 39 -97t99 -37q57 0 93 37t36 97t-37.5 96.5t-96.5 36.5q-60 0 -96.5 -36.5t-36.5 -96.5z" />
<glyph unicode="&#xe6;" horiz-adv-x="1769" d="M102 262q0 155 118.5 240.5t330.5 85.5q118 0 240 -29v131q0 109 -74 176.5t-193 67.5q-159 0 -331 -72l-27 74q187 78 366 78q133 0 224 -65t108 -171q51 111 153 173.5t236 62.5q190 0 310 -139.5t120 -360.5q0 -29 -2 -41h-794q8 -187 120.5 -303.5t286.5 -116.5 q145 0 305 86l35 -71q-179 -93 -348 -93q-150 0 -266.5 76.5t-175.5 212.5q-34 -132 -142.5 -210.5t-257.5 -78.5q-146 0 -244 82t-98 205zM201 268q0 -92 74.5 -154.5t183.5 -62.5q148 0 240 95t92 247v99q-123 30 -232 30q-169 0 -263.5 -67t-94.5 -187zM887 541h700 q-3 175 -95.5 284t-238.5 109q-155 0 -255 -108t-111 -285z" />
<glyph unicode="&#xe7;" horiz-adv-x="995" d="M102 494q0 229 134.5 374.5t345.5 145.5q175 0 331 -111l-43 -69q-134 96 -278 96q-171 0 -280 -121.5t-109 -314.5q0 -192 109 -313.5t280 -121.5q143 0 278 97l43 -72q-142 -101 -301 -107l-20 -108q67 -6 111.5 -51t44.5 -107q0 -71 -58.5 -116.5t-148.5 -45.5 q-91 0 -176 33l22 64q82 -29 145 -29q56 0 94 27t38 75q0 44 -38 72.5t-98 28.5h-18l29 157q-194 14 -315.5 156.5t-121.5 360.5z" />
<glyph unicode="&#xe8;" horiz-adv-x="1083" d="M102 494q0 229 129.5 374.5t333.5 145.5q190 0 310 -139.5t120 -360.5v-41h-794q6 -186 119 -303t288 -117q141 0 305 86l33 -71q-179 -93 -348 -93q-217 0 -356.5 146t-139.5 373zM201 541h700q-3 175 -96 284t-240 109q-154 0 -253.5 -108t-110.5 -285zM301 1368l49 68 l326 -226l-39 -57z" />
<glyph unicode="&#xe9;" horiz-adv-x="1083" d="M102 494q0 229 129.5 374.5t333.5 145.5q190 0 310 -139.5t120 -360.5v-41h-794q6 -186 119 -303t288 -117q141 0 305 86l33 -71q-179 -93 -348 -93q-217 0 -356.5 146t-139.5 373zM201 541h700q-3 175 -96 284t-240 109q-154 0 -253.5 -108t-110.5 -285zM459 1210 l327 226l50 -68l-336 -215z" />
<glyph unicode="&#xea;" horiz-adv-x="1083" d="M102 494q0 229 129.5 374.5t333.5 145.5q190 0 310 -139.5t120 -360.5v-41h-794q6 -186 119 -303t288 -117q141 0 305 86l33 -71q-179 -93 -348 -93q-217 0 -356.5 146t-139.5 373zM201 541h700q-3 175 -96 284t-240 109q-154 0 -253.5 -108t-110.5 -285zM283 1206 l247 242h70l248 -242l-47 -51l-236 219l-235 -219z" />
<glyph unicode="&#xeb;" horiz-adv-x="1083" d="M102 494q0 229 129.5 374.5t333.5 145.5q190 0 310 -139.5t120 -360.5v-41h-794q6 -186 119 -303t288 -117q141 0 305 86l33 -71q-179 -93 -348 -93q-217 0 -356.5 146t-139.5 373zM201 541h700q-3 175 -96 284t-240 109q-154 0 -253.5 -108t-110.5 -285zM287 1305 q0 32 20.5 51.5t52.5 19.5t52 -19.5t20 -51.5t-20 -52t-52 -20t-52.5 20t-20.5 52zM698 1305q0 32 20 51.5t52 19.5q33 0 53.5 -19.5t20.5 -51.5t-21 -52t-53 -20t-52 20t-20 52z" />
<glyph unicode="&#xec;" horiz-adv-x="454" d="M-37 1368l49 68l326 -226l-39 -57zM178 0v989h98v-989h-98z" />
<glyph unicode="&#xed;" horiz-adv-x="454" d="M121 1210l328 226l49 -68l-336 -215zM178 0v989h98v-989h-98z" />
<glyph unicode="&#xee;" horiz-adv-x="454" d="M-55 1206l248 242h69l248 -242l-47 -51l-236 219l-235 -219zM178 0v989h98v-989h-98z" />
<glyph unicode="&#xef;" horiz-adv-x="454" d="M-51 1305q0 32 20.5 51.5t53.5 19.5q32 0 51.5 -19.5t19.5 -51.5t-19.5 -52t-51.5 -20t-53 20t-21 52zM178 0v989h98v-989h-98zM360 1305q0 32 20 51.5t52 19.5q33 0 53.5 -19.5t20.5 -51.5t-21 -52t-53 -20t-52 20t-20 52z" />
<glyph unicode="&#xf0;" horiz-adv-x="1171" d="M102 494q0 225 128 368.5t327 143.5q106 0 187 -35.5t151 -118.5q-87 261 -307 412l-269 -134l-30 60l229 113q-89 54 -196 94l26 69q148 -48 260 -118l244 118l29 -57l-209 -104q162 -121 259 -292t116 -372q5 -55 2 -123q-6 -241 -141 -392t-343 -151 q-203 0 -333 145.5t-130 373.5zM199 489q0 -192 103.5 -314t266.5 -122q168 0 275.5 129.5t107.5 333.5q0 181 -107.5 295.5t-275.5 114.5q-163 0 -266.5 -122t-103.5 -315z" />
<glyph unicode="&#xf1;" horiz-adv-x="1171" d="M178 0v989h80l12 -207q49 109 147.5 170.5t221.5 61.5q161 0 265 -101.5t104 -259.5v-653h-99v641q0 127 -82.5 208t-210.5 81q-147 0 -243.5 -101.5t-96.5 -261.5v-567h-98zM299 1249q15 59 57.5 96t98.5 37q46 0 134.5 -39.5t121.5 -39.5q67 0 92 79l69 -22 q-15 -59 -57 -95t-98 -36q-46 0 -134.5 39t-121.5 39q-32 0 -57 -20.5t-35 -57.5z" />
<glyph unicode="&#xf2;" horiz-adv-x="1171" d="M102 494q0 229 136 374.5t348 145.5t346.5 -145.5t134.5 -374.5q0 -228 -134.5 -373.5t-346.5 -145.5t-348 146t-136 373zM203 494q0 -192 107 -314.5t276 -122.5q167 0 275 122.5t108 314.5q0 193 -107.5 315.5t-275.5 122.5q-169 0 -276 -122.5t-107 -315.5zM322 1368 l49 68l325 -226l-39 -57z" />
<glyph unicode="&#xf3;" horiz-adv-x="1171" d="M102 494q0 229 136 374.5t348 145.5t346.5 -145.5t134.5 -374.5q0 -228 -134.5 -373.5t-346.5 -145.5t-348 146t-136 373zM203 494q0 -192 107 -314.5t276 -122.5q167 0 275 122.5t108 314.5q0 193 -107.5 315.5t-275.5 122.5q-169 0 -276 -122.5t-107 -315.5zM479 1210 l328 226l49 -68l-336 -215z" />
<glyph unicode="&#xf4;" horiz-adv-x="1171" d="M102 494q0 229 136 374.5t348 145.5t346.5 -145.5t134.5 -374.5q0 -228 -134.5 -373.5t-346.5 -145.5t-348 146t-136 373zM203 494q0 -192 107 -314.5t276 -122.5q167 0 275 122.5t108 314.5q0 193 -107.5 315.5t-275.5 122.5q-169 0 -276 -122.5t-107 -315.5zM303 1206 l248 242h70l247 -242l-47 -51l-235 219l-236 -219z" />
<glyph unicode="&#xf5;" horiz-adv-x="1171" d="M102 494q0 229 136 374.5t348 145.5t346.5 -145.5t134.5 -374.5q0 -228 -134.5 -373.5t-346.5 -145.5t-348 146t-136 373zM203 494q0 -192 107 -314.5t276 -122.5q167 0 275 122.5t108 314.5q0 193 -107.5 315.5t-275.5 122.5q-169 0 -276 -122.5t-107 -315.5zM299 1249 q15 59 57.5 96t98.5 37q46 0 134.5 -39.5t121.5 -39.5q67 0 92 79l69 -22q-15 -59 -57 -95t-98 -36q-46 0 -134.5 39t-121.5 39q-32 0 -57 -20.5t-35 -57.5z" />
<glyph unicode="&#xf6;" horiz-adv-x="1171" d="M102 494q0 229 136 374.5t348 145.5t346.5 -145.5t134.5 -374.5q0 -228 -134.5 -373.5t-346.5 -145.5t-348 146t-136 373zM203 494q0 -192 107 -314.5t276 -122.5q167 0 275 122.5t108 314.5q0 193 -107.5 315.5t-275.5 122.5q-169 0 -276 -122.5t-107 -315.5zM307 1305 q0 32 20.5 51.5t53.5 19.5q32 0 52 -19.5t20 -51.5t-20 -52t-52 -20t-53 20t-21 52zM719 1305q0 32 20 51.5t52 19.5t52.5 -19.5t20.5 -51.5t-20.5 -52t-52.5 -20t-52 20t-20 52z" />
<glyph unicode="&#xf7;" d="M119 549v82h942v-82h-942zM524 197q0 29 18.5 47t47.5 18t47 -18t18 -47t-18 -47.5t-47 -18.5t-47.5 18.5t-18.5 47.5zM524 983q0 29 18.5 47.5t47.5 18.5q30 0 47.5 -17.5t17.5 -48.5q0 -29 -18 -47t-47 -18t-47.5 18t-18.5 47z" />
<glyph unicode="&#xf8;" horiz-adv-x="1171" d="M102 494q0 229 136 374.5t348 145.5q157 0 280 -92l72 94l49 -39l-72 -94q152 -149 152 -389q0 -228 -134.5 -373.5t-346.5 -145.5q-164 0 -281 93l-72 -95l-49 39l70 90q-152 149 -152 392zM197 494q0 -197 112 -318l506 678q-96 80 -229 80q-172 0 -280.5 -122.5 t-108.5 -317.5zM354 135q98 -82 232 -82q170 0 279.5 124t109.5 317q0 194 -113 317z" />
<glyph unicode="&#xf9;" horiz-adv-x="1171" d="M162 336v653h98v-641q0 -127 83 -208t212 -81q147 0 242.5 101.5t95.5 261.5v567h98v-989h-80l-12 205q-47 -108 -145 -169t-222 -61q-161 0 -265.5 101.5t-104.5 259.5zM322 1368l49 68l325 -226l-39 -57z" />
<glyph unicode="&#xfa;" horiz-adv-x="1171" d="M162 336v653h98v-641q0 -127 83 -208t212 -81q147 0 242.5 101.5t95.5 261.5v567h98v-989h-80l-12 205q-47 -108 -145 -169t-222 -61q-161 0 -265.5 101.5t-104.5 259.5zM479 1210l328 226l49 -68l-336 -215z" />
<glyph unicode="&#xfb;" horiz-adv-x="1171" d="M162 336v653h98v-641q0 -127 83 -208t212 -81q147 0 242.5 101.5t95.5 261.5v567h98v-989h-80l-12 205q-47 -108 -145 -169t-222 -61q-161 0 -265.5 101.5t-104.5 259.5zM303 1206l248 242h70l247 -242l-47 -51l-235 219l-236 -219z" />
<glyph unicode="&#xfc;" horiz-adv-x="1171" d="M162 336v653h98v-641q0 -127 83 -208t212 -81q147 0 242.5 101.5t95.5 261.5v567h98v-989h-80l-12 205q-47 -108 -145 -169t-222 -61q-161 0 -265.5 101.5t-104.5 259.5zM307 1305q0 32 20.5 51.5t53.5 19.5q32 0 52 -19.5t20 -51.5t-20 -52t-52 -20t-53 20t-21 52z M719 1305q0 32 20 51.5t52 19.5t52.5 -19.5t20.5 -51.5t-20.5 -52t-52.5 -20t-52 20t-20 52z" />
<glyph unicode="&#xfd;" horiz-adv-x="1040" d="M63 989h103l360 -872l346 872h103l-471 -1161q-59 -148 -130.5 -213.5t-178.5 -65.5q-47 0 -127 17l16 82q59 -15 104 -15q79 0 130.5 49t97.5 166l63 158zM414 1210l327 226l50 -68l-336 -215z" />
<glyph unicode="&#xfe;" horiz-adv-x="1171" d="M178 -426v1868h98v-637q53 100 143.5 154.5t207.5 54.5q192 0 316 -146t124 -374q0 -227 -124 -373t-316 -146q-117 0 -207.5 54.5t-143.5 154.5v-610h-98zM274 406q0 -153 93 -251t239 -98q158 0 260.5 123t102.5 314q0 192 -102.5 315t-260.5 123q-146 0 -239 -98 t-93 -250v-178z" />
<glyph unicode="&#xff;" horiz-adv-x="1040" d="M63 989h103l360 -872l346 872h103l-471 -1161q-59 -148 -130.5 -213.5t-178.5 -65.5q-47 0 -127 17l16 82q59 -15 104 -15q79 0 130.5 49t97.5 166l63 158zM242 1305q0 32 20.5 51.5t52.5 19.5t52 -19.5t20 -51.5t-20 -52t-52 -20t-52.5 20t-20.5 52zM653 1305 q0 32 20 51.5t52 19.5q33 0 53.5 -19.5t20.5 -51.5t-21 -52t-53 -20t-52 20t-20 52z" />
<glyph unicode="&#x152;" horiz-adv-x="2064" d="M117 688q0 305 191 496.5t499 191.5h1106v-82h-742v-549h676v-81h-676v-582h775v-82h-1139q-204 0 -361 86t-243 242.5t-86 359.5zM219 688q0 -267 167 -435.5t431 -168.5h254v1208h-254q-264 0 -431 -168.5t-167 -435.5z" />
<glyph unicode="&#x153;" horiz-adv-x="1949" d="M102 494q0 229 136 374.5t348 145.5q154 0 271 -87.5t161 -234.5q45 148 155.5 235t260.5 87q190 0 310 -139.5t120 -360.5q0 -29 -2 -41h-795q8 -186 121 -303t287 -117q146 0 303 86l37 -71q-182 -93 -349 -93q-161 0 -281 87t-167 237q-45 -149 -160.5 -236.5 t-271.5 -87.5q-212 0 -348 146t-136 373zM203 494q0 -192 107 -314.5t276 -122.5q167 0 275 122.5t108 314.5q0 193 -107.5 315.5t-275.5 122.5q-169 0 -276 -122.5t-107 -315.5zM1067 541h700q-3 175 -95 284t-238 109q-154 0 -254.5 -108.5t-112.5 -284.5z" />
<glyph unicode="&#x178;" horiz-adv-x="1204" d="M45 1376h113l444 -680l442 680h115l-508 -772v-604h-100v604zM324 1692q0 32 20.5 51.5t52.5 19.5t52 -19.5t20 -51.5t-20 -52t-52 -20t-52.5 20t-20.5 52zM735 1692q0 32 20 51.5t52 19.5q33 0 53.5 -19.5t20.5 -51.5t-21 -52t-53 -20t-52 20t-20 52z" />
<glyph unicode="&#x2c6;" horiz-adv-x="491" d="M-37 1206l248 242h70l247 -242l-47 -51l-235 219l-236 -219z" />
<glyph unicode="&#x2dc;" horiz-adv-x="491" d="M-41 1249q15 59 57.5 96t98.5 37q46 0 134.5 -39.5t121.5 -39.5q67 0 92 79l69 -22q-15 -59 -57 -95t-98 -36q-46 0 -134.5 39t-121.5 39q-32 0 -57 -20.5t-35 -57.5z" />
<glyph unicode="&#x2000;" horiz-adv-x="940" />
<glyph unicode="&#x2001;" horiz-adv-x="1880" />
<glyph unicode="&#x2002;" horiz-adv-x="940" />
<glyph unicode="&#x2003;" horiz-adv-x="1880" />
<glyph unicode="&#x2004;" horiz-adv-x="626" />
<glyph unicode="&#x2005;" horiz-adv-x="470" />
<glyph unicode="&#x2006;" horiz-adv-x="313" />
<glyph unicode="&#x2007;" horiz-adv-x="313" />
<glyph unicode="&#x2008;" horiz-adv-x="235" />
<glyph unicode="&#x2009;" horiz-adv-x="376" />
<glyph unicode="&#x200a;" horiz-adv-x="104" />
<glyph unicode="&#x2010;" horiz-adv-x="655" d="M59 467v80h537v-80h-537z" />
<glyph unicode="&#x2011;" horiz-adv-x="655" d="M59 467v80h537v-80h-537z" />
<glyph unicode="&#x2012;" horiz-adv-x="655" d="M59 467v80h537v-80h-537z" />
<glyph unicode="&#x2013;" horiz-adv-x="983" d="M59 467v80h865v-80h-865z" />
<glyph unicode="&#x2014;" horiz-adv-x="1966" d="M59 467v80h1848v-80h-1848z" />
<glyph unicode="&#x2018;" horiz-adv-x="483" d="M150 1053q0 103 52 193t148 153l35 -47q-152 -116 -152 -269q36 5 63.5 -17.5t27.5 -57.5t-23.5 -58.5t-58.5 -23.5q-43 0 -67.5 34t-24.5 93z" />
<glyph unicode="&#x2019;" horiz-adv-x="483" d="M98 969q152 116 152 268q-37 -4 -63.5 18.5t-26.5 57.5q0 36 23 59t59 23q42 0 67 -34.5t25 -92.5q0 -102 -52.5 -192.5t-148.5 -153.5z" />
<glyph unicode="&#x201a;" horiz-adv-x="417" d="M98 -281q152 116 152 269q-37 -5 -63.5 17.5t-26.5 57.5q0 36 23 59t59 23q42 0 67 -34.5t25 -92.5q0 -102 -52.5 -192.5t-148.5 -153.5z" />
<glyph unicode="&#x201c;" horiz-adv-x="845" d="M150 1053q0 103 52 193t148 153l35 -47q-152 -116 -152 -269q36 5 63.5 -17.5t27.5 -57.5t-23.5 -58.5t-58.5 -23.5q-43 0 -67.5 34t-24.5 93zM514 1053q0 103 52 193t149 153l35 -47q-152 -116 -152 -269q36 5 63 -17.5t27 -57.5t-23.5 -58.5t-58.5 -23.5 q-43 0 -67.5 34t-24.5 93z" />
<glyph unicode="&#x201d;" horiz-adv-x="845" d="M98 969q152 116 152 268q-37 -4 -63.5 18.5t-26.5 57.5q0 36 23 59t59 23q42 0 67 -34.5t25 -92.5q0 -102 -52.5 -192.5t-148.5 -153.5zM461 969q151 115 151 268q-37 -4 -63.5 18.5t-26.5 57.5q0 36 23 59t59 23q42 0 67 -34.5t25 -92.5q0 -103 -52.5 -193t-147.5 -153z " />
<glyph unicode="&#x201e;" horiz-adv-x="845" d="M98 -281q152 116 152 269q-37 -5 -63.5 17.5t-26.5 57.5q0 36 23 59t59 23q42 0 67 -34.5t25 -92.5q0 -102 -52.5 -192.5t-148.5 -153.5zM461 -281q151 115 151 269q-37 -5 -63.5 17.5t-26.5 57.5q0 36 23 59t59 23q42 0 67 -34.5t25 -92.5q0 -103 -52.5 -193 t-147.5 -153z" />
<glyph unicode="&#x2022;" horiz-adv-x="983" d="M197 590q0 123 86 209t209 86t208.5 -86t85.5 -209t-85.5 -209t-208.5 -86t-209 86t-86 209z" />
<glyph unicode="&#x2026;" horiz-adv-x="1966" d="M246 63q0 35 23.5 58.5t58.5 23.5t58.5 -23.5t23.5 -58.5t-23.5 -58t-58.5 -23t-58.5 23t-23.5 58zM901 63q0 35 23.5 58.5t58.5 23.5t58.5 -23.5t23.5 -58.5t-23.5 -58t-58.5 -23t-58.5 23t-23.5 58zM1556 63q0 35 23.5 58.5t58.5 23.5t58.5 -23.5t23.5 -58.5t-23.5 -58 t-58.5 -23t-58.5 23t-23.5 58z" />
<glyph unicode="&#x202f;" horiz-adv-x="376" />
<glyph unicode="&#x2039;" horiz-adv-x="614" d="M63 481v51l404 449l59 -49l-364 -426l364 -424l-59 -49z" />
<glyph unicode="&#x203a;" horiz-adv-x="614" d="M86 82l367 424l-367 426l59 49l406 -449v-51l-406 -448z" />
<glyph unicode="&#x205f;" horiz-adv-x="470" />
<glyph unicode="&#x20ac;" d="M76 522v70h157q-6 46 -6 96q0 68 9 129h-160v70h172q46 235 190.5 374.5t347.5 139.5q177 0 342 -92l-38 -72q-148 82 -295 82q-168 0 -288 -117.5t-159 -314.5h539v-70h-557q-6 -61 -6 -129q0 -34 4 -96h559v-70h-547q34 -212 156.5 -338.5t298.5 -126.5q147 0 295 82 l38 -71q-167 -93 -342 -93q-210 0 -357.5 148.5t-188.5 398.5h-164z" />
<glyph unicode="&#x2122;" horiz-adv-x="1914" d="M53 1309v67h692v-67h-307v-785h-80v785h-305zM952 524v852h82l322 -438l323 438h82v-852h-75v742l-306 -414h-49l-305 414v-742h-74z" />
<glyph unicode="&#x25fc;" horiz-adv-x="993" d="M0 0v993h993v-993h-993z" />
</font>
</defs>
</svg>
